<svg xmlns="http://www.w3.org/2000/svg" width="503" height="576" viewBox="0 0 503 576">
  <path fill="#FFFFFF" fill-rule="evenodd" d="M500.175182,408.876637 C497.811408,410.717021 495.361561,411.387231 493.228304,411.853894 C487.087873,413.555986 481.171858,415.054532 475.364905,416.815989 C473.673145,419.501514 470.738181,421.745683 467.425616,422.770503 C464.07751,423.210171 459.314863,423.398705 458.493916,426.740179 C458.809128,427.880962 459.234819,428.907563 459.486327,429.717436 C461.89084,436.608287 460.722919,444.411184 456.509094,450.558236 C455.960272,448.745046 453.964011,450.304409 453.531861,451.550655 C451.526293,457.669419 450.18009,463.804698 449.562217,470.406616 L447.577395,472.391454 C451.853747,476.387858 451.590571,484.453487 446.584983,487.277739 C449.930254,487.783859 452.438315,491.330741 451.547039,494.224673 C450.923534,495.769209 449.7071,496.955152 449.562217,498.194349 C448.658032,499.961974 449.372369,502.139244 450.554628,502.164025 C446.785476,503.983233 445.578745,509.344912 445.592572,514.073053 C445.68062,518.514989 446.370701,523.439997 443.60775,526.9745 C440.917973,532.863075 439.172761,539.134586 438.645695,545.830462 L432.691228,545.830462 C431.105248,546.865718 429.453421,548.474952 429.713995,550.792557 C429.842728,552.122791 431.321125,553.907179 430.706406,555.754652 C427.805232,554.836472 426.070935,558.29456 426.736762,560.716747 C427.483841,563.344853 429.52255,565.246011 430.706406,567.66368 C432.028185,569.849903 432.144613,573.310424 429.713995,574.610613 C429.836664,574.542588 -0.908157818,576.246697 0,575.603032 L114.127274,0 L126.036206,8.93177119 L130.005851,7.93935217 L132.983084,10.9166092 L136.952728,12.9014473 L140.922373,16.8711234 C141.292076,16.7248382 145.202127,19.1380803 147.86925,18.8559614 C155.674614,17.2612494 163.81732,19.6951694 171.687116,21.8332185 C175.628733,23.4549131 180.029966,24.9279152 182.603638,27.7877326 C185.114004,30.8393853 187.201224,34.8229376 190.542926,33.7422467 C191.419326,33.9678423 192.191876,33.4508927 192.527748,32.7498277 C198.908336,28.9053858 204.877714,24.8658812 210.391148,20.8407994 C213.533433,19.0103633 216.344692,17.1432632 219.322847,16.8711234 C222.76523,16.2760043 226.482447,17.7538719 227.262136,20.8407994 C238.558248,24.6822121 250.659519,30.1691754 260.011702,36.7195038 C263.078541,38.2956222 265.772159,40.1505588 268.943401,40.6891799 C272.323679,41.0871497 276.973535,40.3889638 277.875101,43.6664369 C278.740578,44.9235235 278.403421,46.3673332 278.867512,47.636113 C278.83275,54.8538202 289.501709,58.7935839 288.791623,65.4996554 C288.165209,67.812833 286.936648,69.499913 285.814389,71.4541695 C283.018106,76.1156508 281.619754,81.8921059 281.844745,87.3328739 C282.186129,91.3723523 286.718344,93.7478875 290.776445,93.287388 C294.226759,92.6920941 297.397006,90.2776356 300.700556,88.3252929 C306.847106,85.3538433 313.92983,84.2773719 320.548777,85.3480358 C323.988753,85.4730458 327.185681,86.2734053 330.472888,86.3404549 C336.263453,86.9703749 342.056975,85.6591476 348.336287,85.3480358 C353.694958,84.8600044 359.993003,85.5423778 364.214864,89.3177119 C368.333395,92.6057331 370.167142,97.6694059 372.154153,102.219159 C373.208832,107.396572 374.684804,112.496735 378.108619,116.113025 C381.578331,119.989463 387.696883,121.834668 392.002374,119.090283 C395.343557,116.327027 396.151278,111.369177 395.972019,107.181254 C395.176191,102.731862 393.70507,98.5086887 393.987197,94.279807 C393.990077,89.8215037 396.427795,85.0534044 400.934074,84.3556168 C403.911954,83.6424362 407.051881,85.4475024 409.865774,86.3404549 C413.519718,86.5689788 417.837269,84.6739026 417.805062,81.3783598 C417.108379,79.7963316 415.736707,78.6249847 414.827829,77.4086837 C411.878806,75.0586411 409.553878,71.9910017 408.873363,68.4769125 C408.470851,64.8315546 410.190595,60.7373142 413.835418,59.5451413 C417.25634,58.1306721 421.456249,60.570674 423.759529,63.5148174 C425.397834,67.3603501 425.688904,71.4436433 425.744351,75.4238456 C426.473583,84.132626 427.016915,92.9013066 427.729173,101.22674 C428.068409,109.873064 427.904681,118.795005 431.698817,126.037216 C433.255534,130.322372 435.802403,135.056413 433.68364,138.938663 C430.449126,144.699651 420.255582,143.010138 417.805062,148.862853 C415.794922,152.174133 417.571666,156.24283 420.782296,158.787043 C423.020755,161.103372 426.529372,162.415816 429.713995,164.741558 C436.354225,168.144833 441.335175,174.325117 446.584983,180.620262 C454.282976,190.536655 462.479046,200.823342 468.418027,212.377671 C469.512045,215.633643 470.884929,218.908062 473.380083,221.309442 C475.177011,222.208025 477.147804,222.895263 479.334549,224.286699 C484.745965,227.506453 487.277069,234.574674 489.25866,241.157822 C490.016773,243.025887 490.596489,245.298032 489.25866,247.112336 C488.411032,248.368104 486.508157,248.73301 485.289015,249.097174 C481.317393,249.855703 477.80999,251.155983 475.364905,254.059269 C472.74657,256.208708 471.411282,260.18253 472.387671,263.98346 C475.611192,270.492328 487.881041,271.029956 488.266249,278.869745 C486.844101,283.602169 480.701293,285.519139 477.349727,289.786354 C472.442158,296.080723 475.356505,305.436901 479.334549,312.611992 C483.438572,319.432246 488.62691,326.720626 487.273838,334.44521 C487.506287,335.517283 487.317091,336.344402 486.281426,336.430048 C486.084891,337.437902 485.13406,337.476826 484.296604,337.422467 C475.457167,337.569268 466.644997,337.654413 457.501505,337.422467 C455.175593,344.881976 461.163163,352.971932 467.425616,358.263267 C472.964873,362.589626 480.063363,367.092561 482.311782,374.141971 C480.518161,373.624371 478.964571,372.8009 477.349727,372.157133 C482.395568,382.557259 489.783916,391.987635 499.18277,398.952447 C500.011418,400.280722 501.23998,401.245289 502.160004,402.922123 C502.777804,404.878532 501.598967,407.595862 500.175182,408.876637 L500.175182,408.876637 Z"/>
</svg>
